%TF.GenerationSoftware,KiCad,Pcbnew,10.0.5*%
%TF.CreationDate,2026-08-19T00:22:10+03:00*%
%TF.ProjectId,nri-g13-shifter,6e72692d-6731-4332-9d73-686966746572,A*%
%TF.SameCoordinates,Original*%
%TF.FileFunction,Soldermask,Top*%
%TF.FilePolarity,Negative*%
%FSLAX46Y46*%
G04 Gerber Fmt 4.6, Leading zero omitted, Abs format (unit mm)*
G04 Created by KiCad (PCBNEW 10.0.5) date 2026-08-19 00:22:10*
%MOMM*%
%LPD*%
G01*
G04 APERTURE LIST*
G04 Aperture macros list*
%AMRoundRect*
0 Rectangle with rounded corners*
0 $1 Rounding radius*
0 $2 $3 $4 $5 $6 $7 $8 $9 X,Y pos of 4 corners*
0 Add a 4 corners polygon primitive as box body*
4,1,4,$2,$3,$4,$5,$6,$7,$8,$9,$2,$3,0*
0 Add four circle primitives for the rounded corners*
1,1,$1+$1,$2,$3*
1,1,$1+$1,$4,$5*
1,1,$1+$1,$6,$7*
1,1,$1+$1,$8,$9*
0 Add four rect primitives between the rounded corners*
20,1,$1+$1,$2,$3,$4,$5,0*
20,1,$1+$1,$4,$5,$6,$7,0*
20,1,$1+$1,$6,$7,$8,$9,0*
20,1,$1+$1,$8,$9,$2,$3,0*%
G04 Aperture macros list end*
%ADD10RoundRect,0.200000X0.200000X0.275000X-0.200000X0.275000X-0.200000X-0.275000X0.200000X-0.275000X0*%
%ADD11RoundRect,0.225000X-0.225000X-0.250000X0.225000X-0.250000X0.225000X0.250000X-0.225000X0.250000X0*%
%ADD12RoundRect,0.150000X-0.587500X-0.150000X0.587500X-0.150000X0.587500X0.150000X-0.587500X0.150000X0*%
%ADD13RoundRect,0.218750X-0.218750X-0.256250X0.218750X-0.256250X0.218750X0.256250X-0.218750X0.256250X0*%
%ADD14RoundRect,0.225000X0.225000X0.250000X-0.225000X0.250000X-0.225000X-0.250000X0.225000X-0.250000X0*%
%ADD15RoundRect,0.250000X-0.600000X-0.600000X0.600000X-0.600000X0.600000X0.600000X-0.600000X0.600000X0*%
%ADD16C,1.700000*%
%ADD17R,1.700000X1.700000*%
G04 APERTURE END LIST*
D10*
%TO.C,R2*%
X33825000Y-32500000D03*
X32175000Y-32500000D03*
%TD*%
%TO.C,R13*%
X51825000Y-38000000D03*
X50175000Y-38000000D03*
%TD*%
%TO.C,R7*%
X33825000Y-72500000D03*
X32175000Y-72500000D03*
%TD*%
%TO.C,R14*%
X51825000Y-46000000D03*
X50175000Y-46000000D03*
%TD*%
D11*
%TO.C,C2*%
X57225000Y-76000000D03*
X58775000Y-76000000D03*
%TD*%
%TO.C,C3*%
X57225000Y-79000000D03*
X58775000Y-79000000D03*
%TD*%
D10*
%TO.C,R24*%
X21825000Y-42500000D03*
X20175000Y-42500000D03*
%TD*%
D12*
%TO.C,Q3*%
X42062500Y-37050000D03*
X42062500Y-38950000D03*
X43937500Y-38000000D03*
%TD*%
D10*
%TO.C,R25*%
X21825000Y-50500000D03*
X20175000Y-50500000D03*
%TD*%
%TO.C,R11*%
X51825000Y-22000000D03*
X50175000Y-22000000D03*
%TD*%
D12*
%TO.C,Q4*%
X42062500Y-45050000D03*
X42062500Y-46950000D03*
X43937500Y-46000000D03*
%TD*%
D10*
%TO.C,R26*%
X21825000Y-58500000D03*
X20175000Y-58500000D03*
%TD*%
%TO.C,R12*%
X51825000Y-30000000D03*
X50175000Y-30000000D03*
%TD*%
D12*
%TO.C,Q7*%
X42062500Y-69050000D03*
X42062500Y-70950000D03*
X43937500Y-70000000D03*
%TD*%
%TO.C,Q1*%
X42062500Y-21050000D03*
X42062500Y-22950000D03*
X43937500Y-22000000D03*
%TD*%
D10*
%TO.C,R1*%
X33825000Y-24500000D03*
X32175000Y-24500000D03*
%TD*%
%TO.C,R3*%
X33825000Y-40500000D03*
X32175000Y-40500000D03*
%TD*%
%TO.C,R21*%
X21825000Y-18500000D03*
X20175000Y-18500000D03*
%TD*%
D13*
%TO.C,D1*%
X15212500Y-18500000D03*
X16787500Y-18500000D03*
%TD*%
D10*
%TO.C,R22*%
X21825000Y-26500000D03*
X20175000Y-26500000D03*
%TD*%
D13*
%TO.C,D2*%
X15212500Y-26500000D03*
X16787500Y-26500000D03*
%TD*%
%TO.C,D4*%
X15212500Y-42500000D03*
X16787500Y-42500000D03*
%TD*%
D10*
%TO.C,R15*%
X51825000Y-54000000D03*
X50175000Y-54000000D03*
%TD*%
%TO.C,R16*%
X51825000Y-62000000D03*
X50175000Y-62000000D03*
%TD*%
%TO.C,R17*%
X51825000Y-70000000D03*
X50175000Y-70000000D03*
%TD*%
D14*
%TO.C,C1*%
X33775000Y-78000000D03*
X32225000Y-78000000D03*
%TD*%
D10*
%TO.C,R5*%
X33825000Y-56500000D03*
X32175000Y-56500000D03*
%TD*%
D15*
%TO.C,J1*%
X72000000Y-40920000D03*
D16*
X74540000Y-40920000D03*
X72000000Y-43460000D03*
X74540000Y-43460000D03*
X72000000Y-46000000D03*
X74540000Y-46000000D03*
X72000000Y-48540000D03*
X74540000Y-48540000D03*
X72000000Y-51080000D03*
X74540000Y-51080000D03*
%TD*%
D12*
%TO.C,Q5*%
X42062500Y-53050000D03*
X42062500Y-54950000D03*
X43937500Y-54000000D03*
%TD*%
%TO.C,Q2*%
X42062500Y-29050000D03*
X42062500Y-30950000D03*
X43937500Y-30000000D03*
%TD*%
D10*
%TO.C,R6*%
X33825000Y-64500000D03*
X32175000Y-64500000D03*
%TD*%
D17*
%TO.C,J2*%
X4000000Y-32030000D03*
D16*
X4000000Y-34570000D03*
X4000000Y-37110000D03*
X4000000Y-39650000D03*
X4000000Y-42190000D03*
X4000000Y-44730000D03*
X4000000Y-47270000D03*
X4000000Y-49810000D03*
X4000000Y-52350000D03*
X4000000Y-54890000D03*
X4000000Y-57430000D03*
X4000000Y-59970000D03*
%TD*%
D13*
%TO.C,D3*%
X15212500Y-34500000D03*
X16787500Y-34500000D03*
%TD*%
D12*
%TO.C,Q6*%
X42062500Y-61050000D03*
X42062500Y-62950000D03*
X43937500Y-62000000D03*
%TD*%
D13*
%TO.C,D6*%
X15212500Y-58500000D03*
X16787500Y-58500000D03*
%TD*%
%TO.C,D5*%
X15212500Y-50500000D03*
X16787500Y-50500000D03*
%TD*%
D10*
%TO.C,R23*%
X21825000Y-34500000D03*
X20175000Y-34500000D03*
%TD*%
%TO.C,R4*%
X33825000Y-48500000D03*
X32175000Y-48500000D03*
%TD*%
M02*
