M48
; DRILL file KiCad 10.0.5 date 2026-08-18T18:52:33
; FORMAT={-:-/ absolute / metric / decimal}
; #@! TF.CreationDate,2026-08-18T18:52:33+03:00
; #@! TF.GenerationSoftware,Kicad,Pcbnew,10.0.5
; #@! TF.FileFunction,Plated,1,2,PTH
FMAT,2
METRIC
; #@! TA.AperFunction,Plated,PTH,ViaDrill
T1C0.600
; #@! TA.AperFunction,Plated,PTH,ComponentDrill
T2C1.000
%
G90
G05
T1
X25.0Y-14.0
X25.0Y-20.725
X25.0Y-28.725
X25.0Y-36.725
X25.0Y-44.725
X25.0Y-52.725
X25.0Y-60.725
X25.0Y-68.725
X25.0Y-82.0
X28.0Y-8.0
X28.0Y-18.5
X28.0Y-26.5
X28.0Y-34.5
X28.0Y-42.5
X28.0Y-50.5
X28.0Y-58.5
X31.0Y-82.0
X37.0Y-21.05
X37.0Y-24.5
X37.0Y-29.05
X37.0Y-32.5
X37.0Y-37.05
X37.0Y-40.5
X37.0Y-45.05
X37.0Y-48.5
X37.0Y-53.05
X37.0Y-56.5
X37.0Y-61.05
X37.0Y-64.5
X37.0Y-69.05
X37.0Y-72.5
X37.0Y-78.0
X43.0Y-14.0
X43.0Y-82.0
X50.0Y-14.0
X52.0Y-82.0
X55.0Y-12.0
X55.0Y-22.0
X55.0Y-30.0
X55.0Y-38.0
X55.0Y-46.0
X55.0Y-54.0
X55.0Y-62.0
X55.0Y-70.0
X55.0Y-76.0
X55.0Y-79.0
X58.0Y-50.8
X58.0Y-58.8
X58.0Y-66.8
X64.0Y-14.0
T2
X4.0Y-32.03
X4.0Y-34.57
X4.0Y-37.11
X4.0Y-39.65
X4.0Y-42.19
X4.0Y-44.73
X4.0Y-47.27
X4.0Y-49.81
X4.0Y-52.35
X4.0Y-54.89
X4.0Y-57.43
X4.0Y-59.97
X72.0Y-40.92
X72.0Y-43.46
X72.0Y-46.0
X72.0Y-48.54
X72.0Y-51.08
X74.54Y-40.92
X74.54Y-43.46
X74.54Y-46.0
X74.54Y-48.54
X74.54Y-51.08
M30
